# Blender v2.69 (sub 0) OBJ File: 'spikes.blend'
# www.blender.org
mtllib spikes.mtl
o Cone
v 0.022316 0.033659 -1.028668
v 0.217406 0.033659 -1.009453
v 0.404999 0.033659 -0.952547
v 0.577886 0.033659 -0.860137
v 0.729423 0.033659 -0.735774
v 0.853786 0.033659 -0.584238
v 0.946196 0.033659 -0.411351
v 1.003101 0.033659 -0.223758
v 1.022316 0.033659 -0.028668
v 0.022316 4.033659 -0.028668
v 1.003101 0.033659 0.166423
v 0.946196 0.033659 0.354016
v 0.853786 0.033659 0.526903
v 0.729423 0.033659 0.678439
v 0.577886 0.033659 0.802802
v 0.404999 0.033659 0.895212
v 0.217406 0.033659 0.952118
v 0.022316 0.033659 0.971332
v -0.172775 0.033659 0.952118
v -0.360368 0.033659 0.895212
v -0.533255 0.033659 0.802802
v -0.684791 0.033659 0.678439
v -0.809154 0.033659 0.526902
v -0.901564 0.033659 0.354015
v -0.958469 0.033659 0.166422
v -0.977684 0.033659 -0.028669
v -0.958469 0.033659 -0.223759
v -0.901563 0.033659 -0.411352
v -0.809153 0.033659 -0.584239
v -0.684790 0.033659 -0.735775
v -0.533253 0.033659 -0.860138
v -0.360366 0.033659 -0.952548
v -0.172773 0.033659 -1.009453
vn -0.281695 0.241436 -0.928632
vn 0.095118 0.241436 -0.965744
vn -0.457450 0.241436 -0.855832
vn -0.615625 0.241436 -0.750143
vn -0.750142 0.241436 -0.615627
vn -0.855831 0.241436 -0.457452
vn -0.928631 0.241436 -0.281698
vn -0.965744 0.241436 -0.095118
vn -0.965744 0.241436 0.095117
vn -0.928631 0.241436 0.281696
vn -0.855831 0.241436 0.457451
vn -0.750143 0.241436 0.615625
vn -0.615626 0.241436 0.750142
vn -0.457452 0.241436 0.855831
vn -0.281698 0.241436 0.928631
vn -0.095118 0.241436 0.965744
vn 0.095117 0.241436 0.965744
vn 0.281697 0.241436 0.928631
vn 0.457451 0.241436 0.855831
vn 0.615626 0.241436 0.750142
vn 0.750142 0.241436 0.615626
vn 0.855831 0.241436 0.457451
vn 0.928631 0.241436 0.281697
vn 0.965744 0.241436 0.095117
vn 0.965744 0.241436 -0.095117
vn 0.928631 0.241436 -0.281697
vn 0.855831 0.241436 -0.457451
vn 0.750142 0.241436 -0.615626
vn 0.615626 0.241436 -0.750142
vn 0.457452 0.241436 -0.855831
vn -0.095117 0.241436 -0.965744
vn 0.281697 0.241436 -0.928631
vn 0.000000 -1.000000 0.000000
usemtl Material.001
s off
f 32//1 10//1 33//1
f 1//2 10//2 2//2
f 31//3 10//3 32//3
f 30//4 10//4 31//4
f 29//5 10//5 30//5
f 28//6 10//6 29//6
f 27//7 10//7 28//7
f 26//8 10//8 27//8
f 25//9 10//9 26//9
f 24//10 10//10 25//10
f 23//11 10//11 24//11
f 22//12 10//12 23//12
f 21//13 10//13 22//13
f 20//14 10//14 21//14
f 19//15 10//15 20//15
f 18//16 10//16 19//16
f 17//17 10//17 18//17
f 16//18 10//18 17//18
f 15//19 10//19 16//19
f 14//20 10//20 15//20
f 13//21 10//21 14//21
f 12//22 10//22 13//22
f 11//23 10//23 12//23
f 9//24 10//24 11//24
f 8//25 10//25 9//25
f 7//26 10//26 8//26
f 6//27 10//27 7//27
f 5//28 10//28 6//28
f 4//29 10//29 5//29
f 3//30 10//30 4//30
f 33//31 10//31 1//31
f 2//32 10//32 3//32
f 1//33 2//33 3//33 4//33 5//33 6//33 7//33 8//33 9//33 11//33 12//33 13//33 14//33 15//33 16//33 17//33 18//33 19//33 20//33 21//33 22//33 23//33 24//33 25//33 26//33 27//33 28//33 29//33 30//33 31//33 32//33 33//33
